<mxfile host="app.diagrams.net" modified="2021-02-25T21:49:51.352Z" agent="5.0 (Windows NT 10.0; Win64; x64) AppleWebKit/537.36 (KHTML, like Gecko) Chrome/88.0.4324.182 Safari/537.36" etag="xAMlsAdSgzuUMs_KmVT1" version="14.4.3" type="github">
  <diagram id="wsiLkzua03WePFZRfwL0" name="Page-1">
    <mxGraphModel dx="2595" dy="1310" grid="1" gridSize="10" guides="1" tooltips="1" connect="1" arrows="1" fold="1" page="1" pageScale="1" pageWidth="827" pageHeight="1169" math="0" shadow="0">
      <root>
        <mxCell id="0" />
        <mxCell id="1" parent="0" />
        <UserObject label="dealership" lucidchartObjectId="pW.evRdNiLaB" id="jQh92n2sM1RkRJzgxfk3-35">
          <mxCell style="html=1;overflow=block;blockSpacing=1;whiteSpace=wrap;;whiteSpace=wrap;fontSize=26;fontColor=#000000;align=center;spacing=3.8;strokeColor=#333333;strokeOpacity=100;fillOpacity=100;rounded=1;absoluteArcSize=1;arcSize=12;fillColor=#ffffff;strokeWidth=0.8;" vertex="1" parent="1">
            <mxGeometry x="225" y="345" width="180" height="60" as="geometry" />
          </mxCell>
        </UserObject>
        <UserObject label="have" lucidchartObjectId="3Z.eFzX2._P_" id="jQh92n2sM1RkRJzgxfk3-36">
          <mxCell style="html=1;overflow=block;blockSpacing=1;whiteSpace=wrap;shape=rhombus;whiteSpace=wrap;fontSize=25.2;fontColor=#333333;align=center;spacing=3.8;strokeColor=#333333;strokeOpacity=100;fillOpacity=100;rounded=1;absoluteArcSize=1;arcSize=12;fillColor=#ffffff;strokeWidth=0.8;" vertex="1" parent="1">
            <mxGeometry x="540" y="315" width="210" height="105" as="geometry" />
          </mxCell>
        </UserObject>
        <UserObject label="" lucidchartObjectId="S0.e54U915XM" id="jQh92n2sM1RkRJzgxfk3-37">
          <mxCell style="html=1;overflow=block;blockSpacing=1;whiteSpace=wrap;shape=partialRectangle;right=0;left=0;whiteSpace=wrap;fontSize=13;align=center;spacing=0;strokeColor=#333333;strokeOpacity=100;fillOpacity=100;rounded=1;absoluteArcSize=1;arcSize=12;fillColor=#ffffff;strokeWidth=0.8;" vertex="1" parent="1">
            <mxGeometry x="405" y="360" width="150" height="22" as="geometry" />
          </mxCell>
        </UserObject>
        <UserObject label="name" lucidchartObjectId="M1.ex3tFfidG" id="jQh92n2sM1RkRJzgxfk3-38">
          <mxCell style="html=1;overflow=block;blockSpacing=1;whiteSpace=wrap;ellipse;whiteSpace=wrap;fontSize=25.2;fontColor=#333333;align=center;spacing=3.8;strokeColor=#333333;strokeOpacity=100;fillOpacity=100;rounded=1;absoluteArcSize=1;arcSize=12;fillColor=#ffffff;strokeWidth=0.8;" vertex="1" parent="1">
            <mxGeometry x="285" y="150" width="120" height="90" as="geometry" />
          </mxCell>
        </UserObject>
        <UserObject label="ID" lucidchartObjectId="S1.e~-xtqCdA" id="jQh92n2sM1RkRJzgxfk3-39">
          <mxCell style="html=1;overflow=block;blockSpacing=1;whiteSpace=wrap;ellipse;whiteSpace=wrap;fontSize=28.5;fontColor=#333333;fontStyle=4;align=center;spacing=3.8;strokeColor=#333333;strokeOpacity=100;fillOpacity=100;rounded=1;absoluteArcSize=1;arcSize=12;fillColor=#ffffff;strokeWidth=0.8;" vertex="1" parent="1">
            <mxGeometry x="75" y="210" width="120" height="90" as="geometry" />
          </mxCell>
        </UserObject>
        <UserObject label="contact number" lucidchartObjectId="S1.eEDJk-1Do" id="jQh92n2sM1RkRJzgxfk3-40">
          <mxCell style="html=1;overflow=block;blockSpacing=1;whiteSpace=wrap;ellipse;whiteSpace=wrap;fontSize=21.8;fontColor=#333333;align=center;spacing=3.8;strokeColor=#333333;strokeOpacity=100;fillOpacity=100;rounded=1;absoluteArcSize=1;arcSize=12;fillColor=#ffffff;strokeWidth=0.8;" vertex="1" parent="1">
            <mxGeometry x="60" y="431" width="120" height="90" as="geometry" />
          </mxCell>
        </UserObject>
        <UserObject label="" lucidchartObjectId="j2.e.~S-O51h" id="jQh92n2sM1RkRJzgxfk3-41">
          <mxCell style="html=1;jettySize=18;whiteSpace=wrap;fontSize=13;strokeColor=#333333;strokeOpacity=100;strokeWidth=0.8;rounded=1;arcSize=24;edgeStyle=orthogonalEdgeStyle;startArrow=none;;endArrow=block;endFill=1;;exitX=0.941;exitY=0.743;exitPerimeter=0;entryX=0.087;entryY=-0.006;entryPerimeter=0;" edge="1" parent="1" source="jQh92n2sM1RkRJzgxfk3-39" target="jQh92n2sM1RkRJzgxfk3-35">
            <mxGeometry width="100" height="100" relative="1" as="geometry">
              <Array as="points" />
            </mxGeometry>
          </mxCell>
        </UserObject>
        <UserObject label="" lucidchartObjectId="m2.etJZYQJmL" id="jQh92n2sM1RkRJzgxfk3-42">
          <mxCell style="html=1;jettySize=18;whiteSpace=wrap;fontSize=13;strokeColor=#333333;strokeOpacity=100;strokeWidth=0.8;rounded=1;arcSize=24;edgeStyle=orthogonalEdgeStyle;startArrow=none;;endArrow=block;endFill=1;;exitX=0.5;exitY=1.004;exitPerimeter=0;entryX=0.667;entryY=-0.006;entryPerimeter=0;" edge="1" parent="1" source="jQh92n2sM1RkRJzgxfk3-38" target="jQh92n2sM1RkRJzgxfk3-35">
            <mxGeometry width="100" height="100" relative="1" as="geometry">
              <Array as="points" />
            </mxGeometry>
          </mxCell>
        </UserObject>
        <UserObject label="" lucidchartObjectId="o2.e_FLLrS1x" id="jQh92n2sM1RkRJzgxfk3-43">
          <mxCell style="html=1;jettySize=18;whiteSpace=wrap;fontSize=13;strokeColor=#333333;strokeOpacity=100;strokeWidth=0.8;rounded=1;arcSize=24;edgeStyle=orthogonalEdgeStyle;startArrow=none;;endArrow=block;endFill=1;;exitX=0.91;exitY=0.208;exitPerimeter=0;entryX=-0.002;entryY=0.827;entryPerimeter=0;" edge="1" parent="1" source="jQh92n2sM1RkRJzgxfk3-40" target="jQh92n2sM1RkRJzgxfk3-35">
            <mxGeometry width="100" height="100" relative="1" as="geometry">
              <Array as="points" />
            </mxGeometry>
          </mxCell>
        </UserObject>
        <UserObject label="email" lucidchartObjectId="w3.ek_q2.u-R" id="jQh92n2sM1RkRJzgxfk3-44">
          <mxCell style="html=1;overflow=block;blockSpacing=1;whiteSpace=wrap;ellipse;whiteSpace=wrap;fontSize=26.8;fontColor=#333333;align=center;spacing=3.8;strokeColor=#333333;strokeOpacity=100;fillOpacity=100;rounded=1;absoluteArcSize=1;arcSize=12;fillColor=#ffffff;strokeWidth=0.8;" vertex="1" parent="1">
            <mxGeometry x="160" y="585" width="120" height="90" as="geometry" />
          </mxCell>
        </UserObject>
        <UserObject label="adress" lucidchartObjectId="w3.ei6V6ADJJ" id="jQh92n2sM1RkRJzgxfk3-45">
          <mxCell style="html=1;overflow=block;blockSpacing=1;whiteSpace=wrap;ellipse;whiteSpace=wrap;fontSize=26.8;fontColor=#333333;align=center;spacing=3.8;strokeColor=#333333;strokeOpacity=100;fillOpacity=100;rounded=1;absoluteArcSize=1;arcSize=12;fillColor=#ffffff;strokeWidth=0.8;" vertex="1" parent="1">
            <mxGeometry x="390" y="540" width="120" height="90" as="geometry" />
          </mxCell>
        </UserObject>
        <UserObject label="" lucidchartObjectId="W3.eaIsW6g4y" id="jQh92n2sM1RkRJzgxfk3-46">
          <mxCell style="html=1;jettySize=18;whiteSpace=wrap;fontSize=13;strokeColor=#333333;strokeOpacity=100;strokeWidth=0.8;rounded=1;arcSize=24;edgeStyle=orthogonalEdgeStyle;startArrow=none;;endArrow=block;endFill=1;;exitX=0.5;exitY=-0.004;exitPerimeter=0;entryX=0.083;entryY=1.006;entryPerimeter=0;" edge="1" parent="1" source="jQh92n2sM1RkRJzgxfk3-44" target="jQh92n2sM1RkRJzgxfk3-35">
            <mxGeometry width="100" height="100" relative="1" as="geometry">
              <Array as="points" />
            </mxGeometry>
          </mxCell>
        </UserObject>
        <UserObject label="" lucidchartObjectId="03.e4Td~cQEk" id="jQh92n2sM1RkRJzgxfk3-47">
          <mxCell style="html=1;jettySize=18;whiteSpace=wrap;fontSize=13;strokeColor=#333333;strokeOpacity=100;strokeWidth=0.8;rounded=1;arcSize=24;edgeStyle=orthogonalEdgeStyle;startArrow=none;;endArrow=block;endFill=1;;exitX=0.5;exitY=-0.004;exitPerimeter=0;entryX=0.608;entryY=1.006;entryPerimeter=0;" edge="1" parent="1" source="jQh92n2sM1RkRJzgxfk3-45" target="jQh92n2sM1RkRJzgxfk3-35">
            <mxGeometry width="100" height="100" relative="1" as="geometry">
              <Array as="points" />
            </mxGeometry>
          </mxCell>
        </UserObject>
        <UserObject label="superb" lucidchartObjectId="w5.e0JowXJe6" id="jQh92n2sM1RkRJzgxfk3-48">
          <mxCell style="html=1;overflow=block;blockSpacing=1;whiteSpace=wrap;ellipse;whiteSpace=wrap;fontSize=26.8;fontColor=#333333;align=center;spacing=3.8;strokeColor=#333333;strokeOpacity=100;fillOpacity=100;rounded=1;absoluteArcSize=1;arcSize=12;fillColor=#ffffff;strokeWidth=0.8;" vertex="1" parent="1">
            <mxGeometry x="285" y="645" width="120" height="90" as="geometry" />
          </mxCell>
        </UserObject>
        <UserObject label="street" lucidchartObjectId="w5.eH4u021p-" id="jQh92n2sM1RkRJzgxfk3-49">
          <mxCell style="html=1;overflow=block;blockSpacing=1;whiteSpace=wrap;ellipse;whiteSpace=wrap;fontSize=26.8;fontColor=#333333;align=center;spacing=3.8;strokeColor=#333333;strokeOpacity=100;fillOpacity=100;rounded=1;absoluteArcSize=1;arcSize=12;fillColor=#ffffff;strokeWidth=0.8;" vertex="1" parent="1">
            <mxGeometry x="480" y="646" width="120" height="90" as="geometry" />
          </mxCell>
        </UserObject>
        <UserObject label="" lucidchartObjectId="N5.eKm9ay9Cd" id="jQh92n2sM1RkRJzgxfk3-50">
          <mxCell style="html=1;jettySize=18;whiteSpace=wrap;fontSize=13;strokeColor=#333333;strokeOpacity=100;strokeWidth=0.8;rounded=1;arcSize=24;edgeStyle=orthogonalEdgeStyle;startArrow=none;;endArrow=block;endFill=1;;exitX=0.671;exitY=0.026;exitPerimeter=0;entryX=0.074;entryY=0.768;entryPerimeter=0;" edge="1" parent="1" source="jQh92n2sM1RkRJzgxfk3-48" target="jQh92n2sM1RkRJzgxfk3-45">
            <mxGeometry width="100" height="100" relative="1" as="geometry">
              <Array as="points" />
            </mxGeometry>
          </mxCell>
        </UserObject>
        <UserObject label="" lucidchartObjectId="P5.e8~6sJzn_" id="jQh92n2sM1RkRJzgxfk3-51">
          <mxCell style="html=1;jettySize=18;whiteSpace=wrap;fontSize=13;strokeColor=#333333;strokeOpacity=100;strokeWidth=0.8;rounded=1;arcSize=24;edgeStyle=orthogonalEdgeStyle;startArrow=none;;endArrow=block;endFill=1;;exitX=0.5;exitY=-0.004;exitPerimeter=0;entryX=0.951;entryY=0.723;entryPerimeter=0;" edge="1" parent="1" source="jQh92n2sM1RkRJzgxfk3-49" target="jQh92n2sM1RkRJzgxfk3-45">
            <mxGeometry width="100" height="100" relative="1" as="geometry">
              <Array as="points" />
            </mxGeometry>
          </mxCell>
        </UserObject>
        <UserObject label="employee" lucidchartObjectId="A6.eMcZ89faj" id="jQh92n2sM1RkRJzgxfk3-52">
          <mxCell style="html=1;overflow=block;blockSpacing=1;whiteSpace=wrap;;whiteSpace=wrap;fontSize=26.8;fontColor=#333333;align=center;spacing=3.8;strokeColor=#333333;strokeOpacity=100;fillOpacity=100;rounded=1;absoluteArcSize=1;arcSize=12;fillColor=#ffffff;strokeWidth=0.8;" vertex="1" parent="1">
            <mxGeometry x="825" y="323" width="210" height="90" as="geometry" />
          </mxCell>
        </UserObject>
        <UserObject label="phone number" lucidchartObjectId="-7.eYbdwmokW" id="jQh92n2sM1RkRJzgxfk3-53">
          <mxCell style="html=1;overflow=block;blockSpacing=1;whiteSpace=wrap;ellipse;whiteSpace=wrap;fontSize=25.2;fontColor=#333333;align=center;spacing=3.8;strokeColor=#333333;strokeOpacity=100;fillOpacity=100;rounded=1;absoluteArcSize=1;arcSize=12;fillColor=#ffffff;strokeWidth=0.8;" vertex="1" parent="1">
            <mxGeometry x="1125" y="255" width="135" height="157" as="geometry" />
          </mxCell>
        </UserObject>
        <UserObject label="name" lucidchartObjectId="_7.ei-V9S7Zf" id="jQh92n2sM1RkRJzgxfk3-54">
          <mxCell style="html=1;overflow=block;blockSpacing=1;whiteSpace=wrap;ellipse;whiteSpace=wrap;fontSize=25.2;fontColor=#333333;align=center;spacing=3.8;strokeColor=#333333;strokeOpacity=100;fillOpacity=100;rounded=1;absoluteArcSize=1;arcSize=12;fillColor=#ffffff;strokeWidth=0.8;" vertex="1" parent="1">
            <mxGeometry x="780" y="150" width="120" height="90" as="geometry" />
          </mxCell>
        </UserObject>
        <UserObject label="ID" lucidchartObjectId="_7.egK0igyg5" id="jQh92n2sM1RkRJzgxfk3-55">
          <mxCell style="html=1;overflow=block;blockSpacing=1;whiteSpace=wrap;ellipse;whiteSpace=wrap;fontSize=25.2;fontColor=#333333;fontStyle=4;align=center;spacing=3.8;strokeColor=#333333;strokeOpacity=100;fillOpacity=100;rounded=1;absoluteArcSize=1;arcSize=12;fillColor=#ffffff;strokeWidth=0.8;" vertex="1" parent="1">
            <mxGeometry x="990" y="135" width="120" height="90" as="geometry" />
          </mxCell>
        </UserObject>
        <UserObject label="" lucidchartObjectId="n8.eD0uzbk7i" id="jQh92n2sM1RkRJzgxfk3-56">
          <mxCell style="html=1;jettySize=18;whiteSpace=wrap;fontSize=13;strokeColor=#333333;strokeOpacity=100;strokeWidth=0.8;rounded=1;arcSize=24;edgeStyle=orthogonalEdgeStyle;startArrow=none;;endArrow=block;endFill=1;;exitX=0.5;exitY=1.004;exitPerimeter=0;entryX=0.071;entryY=-0.004;entryPerimeter=0;" edge="1" parent="1" source="jQh92n2sM1RkRJzgxfk3-54" target="jQh92n2sM1RkRJzgxfk3-52">
            <mxGeometry width="100" height="100" relative="1" as="geometry">
              <Array as="points" />
            </mxGeometry>
          </mxCell>
        </UserObject>
        <UserObject label="" lucidchartObjectId="p8.eRbOdJtju" id="jQh92n2sM1RkRJzgxfk3-57">
          <mxCell style="html=1;jettySize=18;whiteSpace=wrap;fontSize=13;strokeColor=#333333;strokeOpacity=100;strokeWidth=0.8;rounded=1;arcSize=24;edgeStyle=orthogonalEdgeStyle;startArrow=none;;endArrow=block;endFill=1;;exitX=0.278;exitY=0.952;exitPerimeter=0;entryX=0.58;entryY=-0.004;entryPerimeter=0;" edge="1" parent="1" source="jQh92n2sM1RkRJzgxfk3-55" target="jQh92n2sM1RkRJzgxfk3-52">
            <mxGeometry width="100" height="100" relative="1" as="geometry">
              <Array as="points" />
            </mxGeometry>
          </mxCell>
        </UserObject>
        <UserObject label="email" lucidchartObjectId="J8.eF0yAjRCl" id="jQh92n2sM1RkRJzgxfk3-58">
          <mxCell style="html=1;overflow=block;blockSpacing=1;whiteSpace=wrap;ellipse;whiteSpace=wrap;fontSize=25.2;fontColor=#333333;align=center;spacing=3.8;strokeColor=#333333;strokeOpacity=100;fillOpacity=100;rounded=1;absoluteArcSize=1;arcSize=12;fillColor=#ffffff;strokeWidth=0.8;" vertex="1" parent="1">
            <mxGeometry x="1050" y="495" width="120" height="90" as="geometry" />
          </mxCell>
        </UserObject>
        <UserObject label="" lucidchartObjectId="O8.e3~mic8Kp" id="jQh92n2sM1RkRJzgxfk3-59">
          <mxCell style="html=1;jettySize=18;whiteSpace=wrap;fontSize=13;strokeColor=#333333;strokeOpacity=100;strokeWidth=0.8;rounded=1;arcSize=24;edgeStyle=orthogonalEdgeStyle;startArrow=none;;endArrow=block;endFill=1;;exitX=-0.003;exitY=0.5;exitPerimeter=0;entryX=1.002;entryY=0.125;entryPerimeter=0;" edge="1" parent="1" source="jQh92n2sM1RkRJzgxfk3-53" target="jQh92n2sM1RkRJzgxfk3-52">
            <mxGeometry width="100" height="100" relative="1" as="geometry">
              <Array as="points" />
            </mxGeometry>
          </mxCell>
        </UserObject>
        <UserObject label="" lucidchartObjectId="R8.eDTQ_FR2." id="jQh92n2sM1RkRJzgxfk3-60">
          <mxCell style="html=1;jettySize=18;whiteSpace=wrap;fontSize=13;strokeColor=#333333;strokeOpacity=100;strokeWidth=0.8;rounded=1;arcSize=24;edgeStyle=orthogonalEdgeStyle;startArrow=none;;endArrow=block;endFill=1;;exitX=0.5;exitY=-0.004;exitPerimeter=0;entryX=1.002;entryY=0.807;entryPerimeter=0;" edge="1" parent="1" source="jQh92n2sM1RkRJzgxfk3-58" target="jQh92n2sM1RkRJzgxfk3-52">
            <mxGeometry width="100" height="100" relative="1" as="geometry">
              <Array as="points" />
            </mxGeometry>
          </mxCell>
        </UserObject>
        <UserObject label="N" lucidchartObjectId="t9.ewU4IhKmj" id="jQh92n2sM1RkRJzgxfk3-61">
          <mxCell style="html=1;overflow=block;blockSpacing=1;whiteSpace=wrap;;whiteSpace=wrap;fontSize=23.5;fontColor=#333333;align=center;spacing=3.8;strokeOpacity=0;fillOpacity=0;rounded=1;absoluteArcSize=1;arcSize=12;fillColor=#ffffff;strokeWidth=0.8;" vertex="1" parent="1">
            <mxGeometry x="390" y="311" width="180" height="45" as="geometry" />
          </mxCell>
        </UserObject>
        <UserObject label="M" lucidchartObjectId="O-.ey96D_Jqe" id="jQh92n2sM1RkRJzgxfk3-62">
          <mxCell style="html=1;overflow=block;blockSpacing=1;whiteSpace=wrap;;whiteSpace=wrap;fontSize=23.5;fontColor=#333333;align=center;spacing=3.8;strokeOpacity=0;fillOpacity=0;rounded=1;absoluteArcSize=1;arcSize=12;fillColor=#ffffff;strokeWidth=0.8;" vertex="1" parent="1">
            <mxGeometry x="690" y="300" width="180" height="45" as="geometry" />
          </mxCell>
        </UserObject>
        <UserObject label="sold " lucidchartObjectId="e..ephbX9Gx7" id="jQh92n2sM1RkRJzgxfk3-63">
          <mxCell style="html=1;overflow=block;blockSpacing=1;whiteSpace=wrap;shape=rhombus;whiteSpace=wrap;fontSize=23.5;fontColor=#333333;align=center;spacing=3.8;strokeColor=#333333;strokeOpacity=100;fillOpacity=100;rounded=1;absoluteArcSize=1;arcSize=12;fillColor=#ffffff;strokeWidth=0.8;" vertex="1" parent="1">
            <mxGeometry x="870" y="543" width="120" height="105" as="geometry" />
          </mxCell>
        </UserObject>
        <UserObject label="" lucidchartObjectId="G..eeRZCehdf" id="jQh92n2sM1RkRJzgxfk3-64">
          <mxCell style="html=1;jettySize=18;whiteSpace=wrap;fontSize=13;strokeColor=#333333;strokeOpacity=100;strokeWidth=0.8;rounded=1;arcSize=24;edgeStyle=orthogonalEdgeStyle;startArrow=none;;endArrow=block;endFill=1;;exitX=0.5;exitY=1.004;exitPerimeter=0;entryX=0.5;entryY=0.019;entryPerimeter=0;" edge="1" parent="1" source="jQh92n2sM1RkRJzgxfk3-52" target="jQh92n2sM1RkRJzgxfk3-63">
            <mxGeometry width="100" height="100" relative="1" as="geometry">
              <Array as="points" />
            </mxGeometry>
          </mxCell>
        </UserObject>
        <mxCell id="jQh92n2sM1RkRJzgxfk3-114" style="edgeStyle=orthogonalEdgeStyle;rounded=0;orthogonalLoop=1;jettySize=auto;html=1;entryX=0.5;entryY=0;entryDx=0;entryDy=0;" edge="1" parent="1" source="jQh92n2sM1RkRJzgxfk3-65" target="jQh92n2sM1RkRJzgxfk3-113">
          <mxGeometry relative="1" as="geometry" />
        </mxCell>
        <UserObject label="vehicle" lucidchartObjectId="W..eDz8qQ3Hi" id="jQh92n2sM1RkRJzgxfk3-65">
          <mxCell style="html=1;overflow=block;blockSpacing=1;whiteSpace=wrap;;whiteSpace=wrap;fontSize=28.5;fontColor=#333333;align=center;spacing=3.8;strokeColor=#333333;strokeOpacity=100;fillOpacity=100;rounded=1;absoluteArcSize=1;arcSize=12;fillColor=#ffffff;strokeWidth=0.8;" vertex="1" parent="1">
            <mxGeometry x="833" y="754" width="195" height="90" as="geometry" />
          </mxCell>
        </UserObject>
        <UserObject label="" lucidchartObjectId="F~.eSY9hvX35" id="jQh92n2sM1RkRJzgxfk3-66">
          <mxCell style="html=1;jettySize=18;whiteSpace=wrap;fontSize=13;strokeColor=#333333;strokeOpacity=100;strokeWidth=0.8;rounded=1;arcSize=24;edgeStyle=orthogonalEdgeStyle;startArrow=none;;endArrow=block;endFill=1;;exitX=0.5;exitY=0.981;exitPerimeter=0;entryX=0.5;entryY=-0.004;entryPerimeter=0;" edge="1" parent="1" source="jQh92n2sM1RkRJzgxfk3-63" target="jQh92n2sM1RkRJzgxfk3-65">
            <mxGeometry width="100" height="100" relative="1" as="geometry">
              <Array as="points" />
            </mxGeometry>
          </mxCell>
        </UserObject>
        <UserObject label="1" lucidchartObjectId="K~.ew0BPBfI9" id="jQh92n2sM1RkRJzgxfk3-67">
          <mxCell style="html=1;overflow=block;blockSpacing=1;whiteSpace=wrap;;whiteSpace=wrap;fontSize=23.5;fontColor=#333333;align=center;spacing=3.8;strokeOpacity=0;fillOpacity=0;rounded=1;absoluteArcSize=1;arcSize=12;fillColor=#ffffff;strokeWidth=0.8;" vertex="1" parent="1">
            <mxGeometry x="822" y="465" width="180" height="45" as="geometry" />
          </mxCell>
        </UserObject>
        <UserObject label="N" lucidchartObjectId="U~.eEdxYOtPp" id="jQh92n2sM1RkRJzgxfk3-68">
          <mxCell style="html=1;overflow=block;blockSpacing=1;whiteSpace=wrap;;whiteSpace=wrap;fontSize=25.2;fontColor=#333333;align=center;spacing=3.8;strokeOpacity=0;fillOpacity=0;rounded=1;absoluteArcSize=1;arcSize=12;fillColor=#ffffff;strokeWidth=0.8;" vertex="1" parent="1">
            <mxGeometry x="800" y="668" width="180" height="45" as="geometry" />
          </mxCell>
        </UserObject>
        <UserObject label="own" lucidchartObjectId="Db~eetmYiF4q" id="jQh92n2sM1RkRJzgxfk3-69">
          <mxCell style="html=1;overflow=block;blockSpacing=1;whiteSpace=wrap;shape=rhombus;whiteSpace=wrap;fontSize=25.2;fontColor=#333333;align=center;spacing=3.8;strokeColor=#333333;strokeOpacity=100;fillOpacity=100;rounded=1;absoluteArcSize=1;arcSize=12;fillColor=#ffffff;strokeWidth=0.8;" vertex="1" parent="1">
            <mxGeometry x="609" y="465" width="120" height="105" as="geometry" />
          </mxCell>
        </UserObject>
        <UserObject label="" lucidchartObjectId="Wb~e~qnB~G-1" id="jQh92n2sM1RkRJzgxfk3-70">
          <mxCell style="html=1;jettySize=18;whiteSpace=wrap;fontSize=13;strokeColor=#333333;strokeOpacity=100;strokeWidth=0.8;rounded=1;arcSize=24;edgeStyle=orthogonalEdgeStyle;startArrow=none;;endArrow=block;endFill=1;;exitX=0.981;exitY=0.997;exitPerimeter=0;entryX=0.5;entryY=0.019;entryPerimeter=0;" edge="1" parent="1" source="jQh92n2sM1RkRJzgxfk3-35" target="jQh92n2sM1RkRJzgxfk3-69">
            <mxGeometry width="100" height="100" relative="1" as="geometry">
              <Array as="points" />
            </mxGeometry>
          </mxCell>
        </UserObject>
        <UserObject label="" lucidchartObjectId="7b~edS5fRX~u" id="jQh92n2sM1RkRJzgxfk3-71">
          <mxCell style="html=1;jettySize=18;whiteSpace=wrap;fontSize=13;strokeColor=#333333;strokeOpacity=100;strokeWidth=0.8;rounded=1;arcSize=24;edgeStyle=orthogonalEdgeStyle;startArrow=none;;endArrow=block;endFill=1;;exitX=0.5;exitY=0.981;exitPerimeter=0;entryX=-0.002;entryY=0.5;entryPerimeter=0;" edge="1" parent="1" source="jQh92n2sM1RkRJzgxfk3-69" target="jQh92n2sM1RkRJzgxfk3-65">
            <mxGeometry width="100" height="100" relative="1" as="geometry">
              <Array as="points" />
            </mxGeometry>
          </mxCell>
        </UserObject>
        <UserObject label="1" lucidchartObjectId="jc~eCV4YAbyk" id="jQh92n2sM1RkRJzgxfk3-72">
          <mxCell style="html=1;overflow=block;blockSpacing=1;whiteSpace=wrap;;whiteSpace=wrap;fontSize=21.8;fontColor=#333333;align=center;spacing=3.8;strokeOpacity=0;fillOpacity=0;rounded=1;absoluteArcSize=1;arcSize=12;fillColor=#ffffff;strokeWidth=0.8;" vertex="1" parent="1">
            <mxGeometry x="435" y="443" width="180" height="45" as="geometry" />
          </mxCell>
        </UserObject>
        <UserObject label="N" lucidchartObjectId="nc~e8zBb4RhD" id="jQh92n2sM1RkRJzgxfk3-73">
          <mxCell style="html=1;overflow=block;blockSpacing=1;whiteSpace=wrap;;whiteSpace=wrap;fontSize=25.2;fontColor=#333333;align=center;spacing=3.8;strokeOpacity=0;fillOpacity=0;rounded=1;absoluteArcSize=1;arcSize=12;fillColor=#ffffff;strokeWidth=0.8;" vertex="1" parent="1">
            <mxGeometry x="660" y="630" width="180" height="45" as="geometry" />
          </mxCell>
        </UserObject>
        <UserObject label="showroom" lucidchartObjectId="Nq~e.EFPAQFR" id="jQh92n2sM1RkRJzgxfk3-74">
          <mxCell style="html=1;overflow=block;blockSpacing=1;whiteSpace=wrap;;whiteSpace=wrap;fontSize=25.2;fontColor=#333333;align=center;spacing=3.8;strokeColor=#333333;strokeOpacity=100;fillOpacity=100;rounded=1;absoluteArcSize=1;arcSize=12;fillColor=#ffffff;strokeWidth=0.8;" vertex="1" parent="1">
            <mxGeometry x="555" y="1095" width="234" height="90" as="geometry" />
          </mxCell>
        </UserObject>
        <UserObject label="contact person" lucidchartObjectId="ar~eRlunj-pu" id="jQh92n2sM1RkRJzgxfk3-75">
          <mxCell style="html=1;overflow=block;blockSpacing=1;whiteSpace=wrap;ellipse;whiteSpace=wrap;fontSize=21.8;fontColor=#333333;align=center;spacing=3.8;strokeColor=#333333;strokeOpacity=100;fillOpacity=100;rounded=1;absoluteArcSize=1;arcSize=12;fillColor=#ffffff;strokeWidth=0.8;" vertex="1" parent="1">
            <mxGeometry x="270" y="1020" width="120" height="90" as="geometry" />
          </mxCell>
        </UserObject>
        <UserObject label="ID" lucidchartObjectId="dr~eGATyYc2W" id="jQh92n2sM1RkRJzgxfk3-76">
          <mxCell style="html=1;overflow=block;blockSpacing=1;whiteSpace=wrap;ellipse;whiteSpace=wrap;fontSize=26.8;fontColor=#333333;fontStyle=4;align=center;spacing=3.8;strokeColor=#333333;strokeOpacity=100;fillOpacity=100;rounded=1;absoluteArcSize=1;arcSize=12;fillColor=#ffffff;strokeWidth=0.8;" vertex="1" parent="1">
            <mxGeometry x="612" y="1245" width="120" height="75" as="geometry" />
          </mxCell>
        </UserObject>
        <UserObject label="name" lucidchartObjectId="er~e3pFw7BZX" id="jQh92n2sM1RkRJzgxfk3-77">
          <mxCell style="html=1;overflow=block;blockSpacing=1;whiteSpace=wrap;ellipse;whiteSpace=wrap;fontSize=25.2;fontColor=#333333;align=center;spacing=3.8;strokeColor=#333333;strokeOpacity=100;fillOpacity=100;rounded=1;absoluteArcSize=1;arcSize=12;fillColor=#ffffff;strokeWidth=0.8;" vertex="1" parent="1">
            <mxGeometry x="405" y="1260" width="150" height="90" as="geometry" />
          </mxCell>
        </UserObject>
        <UserObject label="" lucidchartObjectId="3s~eJpqCCnya" id="jQh92n2sM1RkRJzgxfk3-78">
          <mxCell style="html=1;jettySize=18;whiteSpace=wrap;fontSize=13;strokeColor=#333333;strokeOpacity=100;strokeWidth=0.8;rounded=1;arcSize=24;edgeStyle=orthogonalEdgeStyle;startArrow=none;;endArrow=block;endFill=1;;exitX=0.5;exitY=-0.004;exitPerimeter=0;entryX=-0.002;entryY=0.927;entryPerimeter=0;" edge="1" parent="1" source="jQh92n2sM1RkRJzgxfk3-77" target="jQh92n2sM1RkRJzgxfk3-74">
            <mxGeometry width="100" height="100" relative="1" as="geometry">
              <Array as="points" />
            </mxGeometry>
          </mxCell>
        </UserObject>
        <UserObject label="" lucidchartObjectId="_s~eeR.tPQaQ" id="jQh92n2sM1RkRJzgxfk3-79">
          <mxCell style="html=1;jettySize=18;whiteSpace=wrap;fontSize=13;strokeColor=#333333;strokeOpacity=100;strokeWidth=0.8;rounded=1;arcSize=24;edgeStyle=orthogonalEdgeStyle;startArrow=none;;endArrow=block;endFill=1;;exitX=0.5;exitY=-0.005;exitPerimeter=0;entryX=0.5;entryY=1.004;entryPerimeter=0;" edge="1" parent="1" source="jQh92n2sM1RkRJzgxfk3-76" target="jQh92n2sM1RkRJzgxfk3-74">
            <mxGeometry width="100" height="100" relative="1" as="geometry">
              <Array as="points" />
            </mxGeometry>
          </mxCell>
        </UserObject>
        <UserObject label="" lucidchartObjectId="Wt~e5ku5RECb" id="jQh92n2sM1RkRJzgxfk3-80">
          <mxCell style="html=1;jettySize=18;whiteSpace=wrap;fontSize=13;strokeColor=#333333;strokeOpacity=100;strokeWidth=0.8;rounded=1;arcSize=24;edgeStyle=orthogonalEdgeStyle;startArrow=none;;endArrow=block;endFill=1;;exitX=1.003;exitY=0.5;exitPerimeter=0;entryX=-0.002;entryY=0.5;entryPerimeter=0;" edge="1" parent="1" source="jQh92n2sM1RkRJzgxfk3-75" target="jQh92n2sM1RkRJzgxfk3-74">
            <mxGeometry width="100" height="100" relative="1" as="geometry">
              <Array as="points" />
            </mxGeometry>
          </mxCell>
        </UserObject>
        <UserObject label="contact number" lucidchartObjectId="2t~erSeZ0sGq" id="jQh92n2sM1RkRJzgxfk3-81">
          <mxCell style="html=1;overflow=block;blockSpacing=1;whiteSpace=wrap;ellipse;whiteSpace=wrap;fontSize=21.8;fontColor=#333333;align=center;spacing=3.8;strokeColor=#333333;strokeOpacity=100;fillOpacity=100;rounded=1;absoluteArcSize=1;arcSize=12;fillColor=#ffffff;strokeWidth=0.8;" vertex="1" parent="1">
            <mxGeometry x="225" y="1125" width="120" height="90" as="geometry" />
          </mxCell>
        </UserObject>
        <UserObject label="" lucidchartObjectId="iu~e6qRuTmtE" id="jQh92n2sM1RkRJzgxfk3-82">
          <mxCell style="html=1;jettySize=18;whiteSpace=wrap;fontSize=13;strokeColor=#333333;strokeOpacity=100;strokeWidth=0.8;rounded=1;arcSize=24;edgeStyle=orthogonalEdgeStyle;startArrow=none;;endArrow=block;endFill=1;;exitX=1.003;exitY=0.5;exitPerimeter=0;entryX=-0.002;entryY=0.833;entryPerimeter=0;" edge="1" parent="1" source="jQh92n2sM1RkRJzgxfk3-81" target="jQh92n2sM1RkRJzgxfk3-74">
            <mxGeometry width="100" height="100" relative="1" as="geometry">
              <Array as="points" />
            </mxGeometry>
          </mxCell>
        </UserObject>
        <UserObject label="park" lucidchartObjectId="Hu~eMSXJQL5-" id="jQh92n2sM1RkRJzgxfk3-83">
          <mxCell style="html=1;overflow=block;blockSpacing=1;whiteSpace=wrap;shape=rhombus;whiteSpace=wrap;fontSize=25.2;fontColor=#333333;align=center;spacing=3.8;strokeColor=#333333;strokeOpacity=100;fillOpacity=100;rounded=1;absoluteArcSize=1;arcSize=12;fillColor=#ffffff;strokeWidth=0.8;" vertex="1" parent="1">
            <mxGeometry x="660" y="907" width="120" height="105" as="geometry" />
          </mxCell>
        </UserObject>
        <UserObject label="" lucidchartObjectId="Ku~ef6pHybCk" id="jQh92n2sM1RkRJzgxfk3-84">
          <mxCell style="html=1;jettySize=18;whiteSpace=wrap;fontSize=13;strokeColor=#333333;strokeOpacity=100;strokeWidth=0.8;rounded=1;arcSize=24;edgeStyle=orthogonalEdgeStyle;startArrow=none;;endArrow=block;endFill=1;;exitX=0.5;exitY=0.019;exitPerimeter=0;entryX=-0.002;entryY=0.733;entryPerimeter=0;" edge="1" parent="1" source="jQh92n2sM1RkRJzgxfk3-83" target="jQh92n2sM1RkRJzgxfk3-65">
            <mxGeometry width="100" height="100" relative="1" as="geometry">
              <Array as="points" />
            </mxGeometry>
          </mxCell>
        </UserObject>
        <UserObject label="n" lucidchartObjectId="Av~eqg6oJwcu" id="jQh92n2sM1RkRJzgxfk3-85">
          <mxCell style="html=1;overflow=block;blockSpacing=1;whiteSpace=wrap;;whiteSpace=wrap;fontSize=25.2;fontColor=#333333;align=center;spacing=3.8;strokeOpacity=0;fillOpacity=0;rounded=1;absoluteArcSize=1;arcSize=12;fillColor=#ffffff;strokeWidth=0.8;" vertex="1" parent="1">
            <mxGeometry x="670" y="855.5" width="180" height="45" as="geometry" />
          </mxCell>
        </UserObject>
        <UserObject label="1" lucidchartObjectId="Ev~e2~ZZ1lnN" id="jQh92n2sM1RkRJzgxfk3-86">
          <mxCell style="html=1;overflow=block;blockSpacing=1;whiteSpace=wrap;;whiteSpace=wrap;fontSize=23.5;fontColor=#333333;align=center;spacing=3.8;strokeOpacity=0;fillOpacity=0;rounded=1;absoluteArcSize=1;arcSize=12;fillColor=#ffffff;strokeWidth=0.8;" vertex="1" parent="1">
            <mxGeometry x="600" y="1017" width="180" height="45" as="geometry" />
          </mxCell>
        </UserObject>
        <UserObject label="" lucidchartObjectId="Oy~e5dYixe93" id="jQh92n2sM1RkRJzgxfk3-87">
          <mxCell style="html=1;overflow=block;blockSpacing=1;whiteSpace=wrap;shape=partialRectangle;right=0;left=0;whiteSpace=wrap;fontSize=13;align=center;spacing=0;strokeColor=#333333;strokeOpacity=100;fillOpacity=100;rounded=1;absoluteArcSize=1;arcSize=12;rotation=90;fillColor=#ffffff;strokeWidth=0.8;" vertex="1" parent="1">
            <mxGeometry x="676" y="1039" width="90" height="23" as="geometry" />
          </mxCell>
        </UserObject>
        <UserObject label="" lucidchartObjectId="wA~eggeAP~p_" id="jQh92n2sM1RkRJzgxfk3-88">
          <mxCell style="html=1;overflow=block;blockSpacing=1;whiteSpace=wrap;shape=partialRectangle;right=0;left=0;whiteSpace=wrap;fontSize=13;align=center;spacing=0;strokeColor=#333333;strokeOpacity=100;fillOpacity=100;rounded=1;absoluteArcSize=1;arcSize=12;fillColor=#ffffff;strokeWidth=0.8;" vertex="1" parent="1">
            <mxGeometry x="738" y="356" width="84" height="30" as="geometry" />
          </mxCell>
        </UserObject>
        <mxCell id="jQh92n2sM1RkRJzgxfk3-99" style="edgeStyle=orthogonalEdgeStyle;rounded=0;orthogonalLoop=1;jettySize=auto;html=1;entryX=1;entryY=0.75;entryDx=0;entryDy=0;" edge="1" parent="1" source="jQh92n2sM1RkRJzgxfk3-89" target="jQh92n2sM1RkRJzgxfk3-65">
          <mxGeometry relative="1" as="geometry" />
        </mxCell>
        <UserObject label="build date" lucidchartObjectId="iC~e6mNWFcpF" id="jQh92n2sM1RkRJzgxfk3-89">
          <mxCell style="html=1;overflow=block;blockSpacing=1;whiteSpace=wrap;ellipse;whiteSpace=wrap;fontSize=25.2;fontColor=#333333;align=center;spacing=3.8;strokeColor=#333333;strokeOpacity=100;fillOpacity=100;rounded=1;absoluteArcSize=1;arcSize=12;fillColor=#ffffff;strokeWidth=0.8;" vertex="1" parent="1">
            <mxGeometry x="1210" y="713" width="110" height="90" as="geometry" />
          </mxCell>
        </UserObject>
        <mxCell id="jQh92n2sM1RkRJzgxfk3-97" style="edgeStyle=orthogonalEdgeStyle;rounded=0;orthogonalLoop=1;jettySize=auto;html=1;entryX=0.75;entryY=0;entryDx=0;entryDy=0;" edge="1" parent="1" source="jQh92n2sM1RkRJzgxfk3-90" target="jQh92n2sM1RkRJzgxfk3-65">
          <mxGeometry relative="1" as="geometry" />
        </mxCell>
        <UserObject label="make" lucidchartObjectId="iC~eE5q278bs" id="jQh92n2sM1RkRJzgxfk3-90">
          <mxCell style="html=1;overflow=block;blockSpacing=1;whiteSpace=wrap;ellipse;whiteSpace=wrap;fontSize=25.2;fontColor=#333333;align=center;spacing=3.8;strokeColor=#333333;strokeOpacity=100;fillOpacity=100;rounded=1;absoluteArcSize=1;arcSize=12;fillColor=#ffffff;strokeWidth=0.8;" vertex="1" parent="1">
            <mxGeometry x="1310" y="578" width="110" height="90" as="geometry" />
          </mxCell>
        </UserObject>
        <mxCell id="jQh92n2sM1RkRJzgxfk3-98" style="edgeStyle=orthogonalEdgeStyle;rounded=0;orthogonalLoop=1;jettySize=auto;html=1;entryX=1;entryY=0.25;entryDx=0;entryDy=0;" edge="1" parent="1" source="jQh92n2sM1RkRJzgxfk3-95" target="jQh92n2sM1RkRJzgxfk3-65">
          <mxGeometry relative="1" as="geometry" />
        </mxCell>
        <UserObject label="model" lucidchartObjectId="iC~eE5q278bs" id="jQh92n2sM1RkRJzgxfk3-95">
          <mxCell style="html=1;overflow=block;blockSpacing=1;whiteSpace=wrap;ellipse;whiteSpace=wrap;fontSize=25.2;fontColor=#333333;align=center;spacing=3.8;strokeColor=#333333;strokeOpacity=100;fillOpacity=100;rounded=1;absoluteArcSize=1;arcSize=12;fillColor=#ffffff;strokeWidth=0.8;" vertex="1" parent="1">
            <mxGeometry x="1070" y="623" width="120" height="90" as="geometry" />
          </mxCell>
        </UserObject>
        <mxCell id="jQh92n2sM1RkRJzgxfk3-100" value="" style="edgeStyle=orthogonalEdgeStyle;rounded=0;orthogonalLoop=1;jettySize=auto;html=1;" edge="1" parent="1" source="jQh92n2sM1RkRJzgxfk3-96">
          <mxGeometry relative="1" as="geometry">
            <mxPoint x="990" y="850" as="targetPoint" />
          </mxGeometry>
        </mxCell>
        <UserObject label="&lt;u&gt;ID&lt;/u&gt;" lucidchartObjectId="iC~eE5q278bs" id="jQh92n2sM1RkRJzgxfk3-96">
          <mxCell style="html=1;overflow=block;blockSpacing=1;whiteSpace=wrap;ellipse;whiteSpace=wrap;fontSize=25.2;fontColor=#333333;align=center;spacing=3.8;strokeColor=#333333;strokeOpacity=100;fillOpacity=100;rounded=1;absoluteArcSize=1;arcSize=12;fillColor=#ffffff;strokeWidth=0.8;" vertex="1" parent="1">
            <mxGeometry x="1410" y="860" width="120" height="90" as="geometry" />
          </mxCell>
        </UserObject>
        <mxCell id="jQh92n2sM1RkRJzgxfk3-102" style="edgeStyle=orthogonalEdgeStyle;rounded=0;orthogonalLoop=1;jettySize=auto;html=1;entryX=0.908;entryY=1.067;entryDx=0;entryDy=0;entryPerimeter=0;" edge="1" parent="1" source="jQh92n2sM1RkRJzgxfk3-101" target="jQh92n2sM1RkRJzgxfk3-65">
          <mxGeometry relative="1" as="geometry" />
        </mxCell>
        <UserObject label="description" lucidchartObjectId="iC~eE5q278bs" id="jQh92n2sM1RkRJzgxfk3-101">
          <mxCell style="html=1;overflow=block;blockSpacing=1;whiteSpace=wrap;ellipse;whiteSpace=wrap;fontSize=25.2;fontColor=#333333;align=center;spacing=3.8;strokeColor=#333333;strokeOpacity=100;fillOpacity=100;rounded=1;absoluteArcSize=1;arcSize=12;fillColor=#ffffff;strokeWidth=0.8;" vertex="1" parent="1">
            <mxGeometry x="1200" y="809.5" width="180" height="80" as="geometry" />
          </mxCell>
        </UserObject>
        <mxCell id="jQh92n2sM1RkRJzgxfk3-103" value="&lt;font style=&quot;font-size: 21px&quot;&gt;consumer&lt;/font&gt;" style="rounded=1;whiteSpace=wrap;html=1;" vertex="1" parent="1">
          <mxGeometry x="940" y="1095" width="260" height="101" as="geometry" />
        </mxCell>
        <mxCell id="jQh92n2sM1RkRJzgxfk3-109" style="edgeStyle=orthogonalEdgeStyle;rounded=0;orthogonalLoop=1;jettySize=auto;html=1;exitX=0;exitY=0.5;exitDx=0;exitDy=0;entryX=1;entryY=0.25;entryDx=0;entryDy=0;" edge="1" parent="1" source="jQh92n2sM1RkRJzgxfk3-104" target="jQh92n2sM1RkRJzgxfk3-103">
          <mxGeometry relative="1" as="geometry" />
        </mxCell>
        <UserObject label="ID" lucidchartObjectId="w3.ek_q2.u-R" id="jQh92n2sM1RkRJzgxfk3-104">
          <mxCell style="html=1;overflow=block;blockSpacing=1;whiteSpace=wrap;ellipse;whiteSpace=wrap;fontSize=26.8;fontColor=#333333;align=center;spacing=3.8;strokeColor=#333333;strokeOpacity=100;fillOpacity=100;rounded=1;absoluteArcSize=1;arcSize=12;fillColor=#ffffff;strokeWidth=0.8;" vertex="1" parent="1">
            <mxGeometry x="1300" y="1050" width="120" height="90" as="geometry" />
          </mxCell>
        </UserObject>
        <mxCell id="jQh92n2sM1RkRJzgxfk3-111" style="edgeStyle=orthogonalEdgeStyle;rounded=0;orthogonalLoop=1;jettySize=auto;html=1;" edge="1" parent="1" source="jQh92n2sM1RkRJzgxfk3-105">
          <mxGeometry relative="1" as="geometry">
            <mxPoint x="1160" y="1200" as="targetPoint" />
          </mxGeometry>
        </mxCell>
        <UserObject label="email" lucidchartObjectId="w3.ek_q2.u-R" id="jQh92n2sM1RkRJzgxfk3-105">
          <mxCell style="html=1;overflow=block;blockSpacing=1;whiteSpace=wrap;ellipse;whiteSpace=wrap;fontSize=26.8;fontColor=#333333;align=center;spacing=3.8;strokeColor=#333333;strokeOpacity=100;fillOpacity=100;rounded=1;absoluteArcSize=1;arcSize=12;fillColor=#ffffff;strokeWidth=0.8;" vertex="1" parent="1">
            <mxGeometry x="1180" y="1270" width="120" height="90" as="geometry" />
          </mxCell>
        </UserObject>
        <mxCell id="jQh92n2sM1RkRJzgxfk3-110" style="edgeStyle=orthogonalEdgeStyle;rounded=0;orthogonalLoop=1;jettySize=auto;html=1;entryX=1;entryY=0.75;entryDx=0;entryDy=0;" edge="1" parent="1" source="jQh92n2sM1RkRJzgxfk3-106" target="jQh92n2sM1RkRJzgxfk3-103">
          <mxGeometry relative="1" as="geometry" />
        </mxCell>
        <UserObject label="name" lucidchartObjectId="w3.ek_q2.u-R" id="jQh92n2sM1RkRJzgxfk3-106">
          <mxCell style="html=1;overflow=block;blockSpacing=1;whiteSpace=wrap;ellipse;whiteSpace=wrap;fontSize=26.8;fontColor=#333333;align=center;spacing=3.8;strokeColor=#333333;strokeOpacity=100;fillOpacity=100;rounded=1;absoluteArcSize=1;arcSize=12;fillColor=#ffffff;strokeWidth=0.8;" vertex="1" parent="1">
            <mxGeometry x="1310" y="1155" width="130" height="90" as="geometry" />
          </mxCell>
        </UserObject>
        <mxCell id="jQh92n2sM1RkRJzgxfk3-112" value="" style="edgeStyle=orthogonalEdgeStyle;rounded=0;orthogonalLoop=1;jettySize=auto;html=1;" edge="1" parent="1" source="jQh92n2sM1RkRJzgxfk3-108" target="jQh92n2sM1RkRJzgxfk3-103">
          <mxGeometry relative="1" as="geometry" />
        </mxCell>
        <UserObject label="phone number" lucidchartObjectId="w3.ek_q2.u-R" id="jQh92n2sM1RkRJzgxfk3-108">
          <mxCell style="html=1;overflow=block;blockSpacing=1;whiteSpace=wrap;ellipse;whiteSpace=wrap;fontSize=26.8;fontColor=#333333;align=center;spacing=3.8;strokeColor=#333333;strokeOpacity=100;fillOpacity=100;rounded=1;absoluteArcSize=1;arcSize=12;fillColor=#ffffff;strokeWidth=0.8;" vertex="1" parent="1">
            <mxGeometry x="1005" y="1260" width="130" height="100" as="geometry" />
          </mxCell>
        </UserObject>
        <mxCell id="jQh92n2sM1RkRJzgxfk3-116" style="edgeStyle=orthogonalEdgeStyle;rounded=0;orthogonalLoop=1;jettySize=auto;html=1;exitX=0.5;exitY=1;exitDx=0;exitDy=0;entryX=0;entryY=0.5;entryDx=0;entryDy=0;" edge="1" parent="1" source="jQh92n2sM1RkRJzgxfk3-113" target="jQh92n2sM1RkRJzgxfk3-103">
          <mxGeometry relative="1" as="geometry" />
        </mxCell>
        <mxCell id="jQh92n2sM1RkRJzgxfk3-113" value="&lt;font style=&quot;font-size: 19px&quot;&gt;purchase&lt;/font&gt;" style="rhombus;whiteSpace=wrap;html=1;" vertex="1" parent="1">
          <mxGeometry x="850" y="960" width="130" height="80" as="geometry" />
        </mxCell>
        <mxCell id="jQh92n2sM1RkRJzgxfk3-115" value="&lt;font style=&quot;font-size: 21px&quot;&gt;N&lt;/font&gt;" style="text;html=1;strokeColor=none;fillColor=none;align=center;verticalAlign=middle;whiteSpace=wrap;rounded=0;" vertex="1" parent="1">
          <mxGeometry x="860" y="889.5" width="70" height="46" as="geometry" />
        </mxCell>
        <mxCell id="jQh92n2sM1RkRJzgxfk3-117" value="&lt;font style=&quot;font-size: 23px&quot;&gt;1&lt;/font&gt;" style="text;html=1;strokeColor=none;fillColor=none;align=center;verticalAlign=middle;whiteSpace=wrap;rounded=0;" vertex="1" parent="1">
          <mxGeometry x="870" y="1062" width="40" height="20" as="geometry" />
        </mxCell>
        <mxCell id="jQh92n2sM1RkRJzgxfk3-120" style="edgeStyle=orthogonalEdgeStyle;rounded=0;orthogonalLoop=1;jettySize=auto;html=1;exitX=0;exitY=0.5;exitDx=0;exitDy=0;entryX=1;entryY=0;entryDx=0;entryDy=0;" edge="1" parent="1" source="jQh92n2sM1RkRJzgxfk3-118" target="jQh92n2sM1RkRJzgxfk3-113">
          <mxGeometry relative="1" as="geometry" />
        </mxCell>
        <mxCell id="jQh92n2sM1RkRJzgxfk3-118" value="&lt;font style=&quot;font-size: 20px&quot;&gt;date&lt;/font&gt;" style="ellipse;whiteSpace=wrap;html=1;" vertex="1" parent="1">
          <mxGeometry x="1025" y="924.75" width="100" height="69.5" as="geometry" />
        </mxCell>
        <mxCell id="jQh92n2sM1RkRJzgxfk3-121" style="edgeStyle=orthogonalEdgeStyle;rounded=0;orthogonalLoop=1;jettySize=auto;html=1;entryX=0.636;entryY=0.9;entryDx=0;entryDy=0;entryPerimeter=0;" edge="1" parent="1" source="jQh92n2sM1RkRJzgxfk3-119" target="jQh92n2sM1RkRJzgxfk3-113">
          <mxGeometry relative="1" as="geometry" />
        </mxCell>
        <mxCell id="jQh92n2sM1RkRJzgxfk3-119" value="&lt;font style=&quot;font-size: 18px&quot;&gt;sales price&lt;/font&gt;" style="ellipse;whiteSpace=wrap;html=1;" vertex="1" parent="1">
          <mxGeometry x="1018.75" y="1014" width="102.5" height="68" as="geometry" />
        </mxCell>
      </root>
    </mxGraphModel>
  </diagram>
</mxfile>
